<svg xmlns="http://www.w3.org/2000/svg" width="40px" height="40px" viewBox="0 0 40 40">
<style type="text/css">
	.st0{fill:#4A4F55;}
</style>
<path class="st0" d="M35.9,15.5c0.6-0.1,2.4-0.3,2.4-1.2c0-0.5-0.3-1.1-1.3-1.1c-0.6,0-1.1,0.1-1.7,0.1c-0.4,0.1-0.9,0.1-1.2,0.4
	c-0.3,0.3-0.4,0.9-0.5,1.3l-2-4.4c-0.4-0.9-1.3-1.4-2.3-1.4H10.7c-1,0-1.9,0.6-2.3,1.4l-2,4.4c-0.1-0.5-0.2-1-0.5-1.3
	c-0.3-0.3-0.8-0.4-1.2-0.4c-0.6-0.1-1.1-0.1-1.7-0.1c-1,0-1.3,0.6-1.3,1.1c0,0.9,1.7,1.2,2.4,1.2c0.2,0,1.6,0.1,2.1-0.1l-0.3,0.7h0
	c-0.1,0-3.3,0.7-3.7,1.7c-0.2,0.5-0.1,4.6-0.1,4.8c0,0.7,0.2,1.1,0.6,1.4c0,0-0.1,0.1-0.1,0.1v5.3c0.1,0.8,0.9,1.3,1.8,1.3h3
	c0.8,0,1.7-0.5,1.7-1.4v-1.5l3.2,0.2l0.4,0.2h14.7l0.4-0.2l3.2-0.2v1.5c0,0.9,0.9,1.4,1.7,1.4h3c0.8,0,1.7-0.5,1.8-1.3v-5.3
	c0-0.1,0-0.1-0.1-0.1c0.4-0.3,0.6-0.8,0.6-1.4h0c0.1-0.6,0-4.5-0.1-4.8c-0.4-1-3.6-1.6-3.7-1.7h0l-0.3-0.7
	C34.3,15.6,35.7,15.6,35.9,15.5z M12.9,22.8c0,0.2-0.1,0.4-0.2,0.5c-0.3,0.2-0.7,0.2-0.7,0.2c-0.3-0.1-6.3-2.7-6.9-3.1
	c-0.2-0.1-0.2-0.3-0.2-0.4c0.1-0.3,0.5-0.6,0.6-0.7c0.4,0.1,4.9,0.6,5.8,1C12.3,20.6,13,21.9,12.9,22.8z M35.1,20.1
	c0,0.1-0.1,0.2-0.2,0.3l0,0c-0.6,0.4-6.5,3-6.9,3.1c-0.1,0-0.5,0-0.7-0.2c-0.1-0.1-0.2-0.3-0.2-0.5c0-0.9,0.6-2.2,1.6-2.5
	c0.9-0.3,5.4-0.9,5.8-1C34.7,19.4,35.1,19.8,35.1,20.1z M7.4,16.2l2.2-4.9c0.2-0.4,0.6-0.6,1.1-0.6h18.5c0.5,0,0.9,0.2,1.1,0.6
	l2.2,4.9L7.4,16.2z"/>
</svg>
