<?xml version="1.0" encoding="utf-8"?>
<!-- Generator: Adobe Illustrator 21.0.2, SVG Export Plug-In . SVG Version: 6.00 Build 0)  -->
<svg version="1.1" id="Layer_1" xmlns="http://www.w3.org/2000/svg" xmlns:xlink="http://www.w3.org/1999/xlink" x="0px" y="0px"
	 viewBox="0 0 19.2 20" style="enable-background:new 0 0 19.2 20;" xml:space="preserve">
<style type="text/css">
	.st0{fill:#4A4F55;}
</style>
<path class="st0" d="M9.5,11.2c-1.8,0-3.2-1.7-3.2-3.8s1.5-3.7,3.2-3.7s3.2,1.6,3.2,3.6C12.7,9.4,11.3,11.2,9.5,11.2L9.5,11.2z
	 M4.6,16.3c0,0-0.7,0.1-1-0.3c-0.1-0.3-0.1-0.7,0.1-0.9L4,14.5c0,0,0.8-1.7,1.6-2.6c0.5-0.7,1.1-0.5,1.5-0.3
	c0.3,0.1,0.5,0.4,0.8,0.7c0.3,0.3,0.8,0.5,1.6,0.5h0.5c0.8,0,1.3-0.3,1.6-0.6c0.2-0.2,0.5-0.5,0.8-0.7c0.3-0.2,0.9-0.3,1.5,0.3
	c0.8,0.9,1.5,2.7,1.5,2.7l0.3,0.6c0.1,0.3,0.3,0.7,0.1,0.9c-0.3,0.4-0.9,0.3-0.9,0.3H4.6z"/>
</svg>
